<!DOCTYPE svg PUBLIC "-//W3C//DTD SVG 1.1//EN" "http://www.w3.org/Graphics/SVG/1.1/DTD/svg11.dtd">
<svg xmlns="http://www.w3.org/2000/svg" xmlns:xlink="http://www.w3.org/1999/xlink" xmlns:jfreesvg="http://www.jfree.org/jfreesvg/svg" width="639" height="535">
<defs><clipPath id="clip-0"><path d="M 0 0 L 639 0 L 639 535 L 0 535 L 0 0 M 0 0"/></clipPath>
<clipPath id="clip-1"><path d="M 324.66 236.02 L 324.66 875.02 L -210.34 875.02 L -210.34 236.02 L 324.66 236.02 M 324.66 236.02"/></clipPath>
<clipPath id="clip-2"><path d="M 102.64 101.92 L 102.64 458.75 L 613 458.75 L 613 101.92 M 102.64 101.92"/></clipPath>
</defs>
<rect x="0" y="0" width="639" height="535" style="fill: rgba(255,255,255,1);fill-opacity: 1.0" transform="matrix(1,0,0,1,0,0)" clip-path="url(#clip-0)"/><g transform="matrix(1,0,0,1,0,0)"><text x="144" y="19.1" style="fill: rgba(0,0,0,1); font-family: sans-serif; font-size: 18px; " text-rendering="auto" clip-path="url(#clip-0)">DOMINANT GAS SPECIE IN S-O MIXTURE</text></g><g transform="matrix(1,0,0,1,0,0)"><text x="21" y="37.71" style="fill: rgba(0,0,0,1); font-family: sans-serif; font-size: 12px; " text-rendering="auto" clip-path="url(#clip-0)">2016.05.08.13.23.59</text></g><g transform="matrix(1,0,0,1,0,0)"><text x="21" y="54.8" style="fill: rgba(0,0,0,1); font-family: sans-serif; font-size: 12px; " text-rendering="auto" clip-path="url(#clip-0)">PSUB: O, S</text></g><g transform="matrix(1,0,0,1,0,0)"><text x="21" y="71.89" style="fill: rgba(0,0,0,1); font-family: sans-serif; font-size: 12px; " text-rendering="auto" clip-path="url(#clip-0)">P=2E5, N(O)=2.5, N(S)=0.5</text></g><rect x="102.64" y="101.92" width="510.36" height="356.83" style="fill: rgba(255,255,255,1);fill-opacity: 1.0" transform="matrix(1,0,0,1,0,0)" clip-path="url(#clip-0)"/><line x1="102.64" y1="458.75" x2="613" y2="458.75" style="stroke-width: 1.0;stroke: rgba(0,0,0,1);stroke-opacity: 1.0;" transform="matrix(1,0,0,1,0,0)" clip-path="url(#clip-0)"/><g transform="matrix(1,0,0,1,0,0)"><text x="133.17" y="478.83" style="fill: rgba(0,0,0,1); font-family: sans-serif; font-size: 14px; " text-rendering="auto" clip-path="url(#clip-0)">400</text></g><line x1="145.17" y1="460.75" x2="145.17" y2="458.75" style="stroke-width: 1.0;stroke: rgba(0,0,0,1);stroke-opacity: 1.0;" transform="matrix(1,0,0,1,0,0)" clip-path="url(#clip-0)"/><g transform="matrix(1,0,0,1,0,0)"><text x="218.23" y="478.83" style="fill: rgba(0,0,0,1); font-family: sans-serif; font-size: 14px; " text-rendering="auto" clip-path="url(#clip-0)">600</text></g><line x1="230.23" y1="460.75" x2="230.23" y2="458.75" style="stroke-width: 1.0;stroke: rgba(0,0,0,1);stroke-opacity: 1.0;" transform="matrix(1,0,0,1,0,0)" clip-path="url(#clip-0)"/><g transform="matrix(1,0,0,1,0,0)"><text x="303.29" y="478.83" style="fill: rgba(0,0,0,1); font-family: sans-serif; font-size: 14px; " text-rendering="auto" clip-path="url(#clip-0)">800</text></g><line x1="315.29" y1="460.75" x2="315.29" y2="458.75" style="stroke-width: 1.0;stroke: rgba(0,0,0,1);stroke-opacity: 1.0;" transform="matrix(1,0,0,1,0,0)" clip-path="url(#clip-0)"/><g transform="matrix(1,0,0,1,0,0)"><text x="384.35" y="478.83" style="fill: rgba(0,0,0,1); font-family: sans-serif; font-size: 14px; " text-rendering="auto" clip-path="url(#clip-0)">1000</text></g><line x1="400.35" y1="460.75" x2="400.35" y2="458.75" style="stroke-width: 1.0;stroke: rgba(0,0,0,1);stroke-opacity: 1.0;" transform="matrix(1,0,0,1,0,0)" clip-path="url(#clip-0)"/><g transform="matrix(1,0,0,1,0,0)"><text x="469.41" y="478.83" style="fill: rgba(0,0,0,1); font-family: sans-serif; font-size: 14px; " text-rendering="auto" clip-path="url(#clip-0)">1200</text></g><line x1="485.41" y1="460.75" x2="485.41" y2="458.75" style="stroke-width: 1.0;stroke: rgba(0,0,0,1);stroke-opacity: 1.0;" transform="matrix(1,0,0,1,0,0)" clip-path="url(#clip-0)"/><g transform="matrix(1,0,0,1,0,0)"><text x="554.47" y="478.83" style="fill: rgba(0,0,0,1); font-family: sans-serif; font-size: 14px; " text-rendering="auto" clip-path="url(#clip-0)">1400</text></g><line x1="570.47" y1="460.75" x2="570.47" y2="458.75" style="stroke-width: 1.0;stroke: rgba(0,0,0,1);stroke-opacity: 1.0;" transform="matrix(1,0,0,1,0,0)" clip-path="url(#clip-0)"/><g transform="matrix(1,0,0,1,0,0)"><text x="253.32" y="505.46" style="fill: rgba(0,0,0,1); font-family: sans-serif; font-size: 18px; " text-rendering="auto" clip-path="url(#clip-0)">TEMPERATURE_KELVIN</text></g><line x1="102.64" y1="101.92" x2="102.64" y2="458.75" style="stroke-width: 1.0;stroke: rgba(0,0,0,1);stroke-opacity: 1.0;" transform="matrix(1,0,0,1,0,0)" clip-path="url(#clip-0)"/><g transform="matrix(1,0,0,1,0,0)"><text x="60.64" y="464.02" style="fill: rgba(0,0,0,1); font-family: sans-serif; font-size: 14px; " text-rendering="auto" clip-path="url(#clip-0)">1.000</text></g><line x1="100.64" y1="458.75" x2="102.64" y2="458.75" style="stroke-width: 1.0;stroke: rgba(0,0,0,1);stroke-opacity: 1.0;" transform="matrix(1,0,0,1,0,0)" clip-path="url(#clip-0)"/><g transform="matrix(1,0,0,1,0,0)"><text x="60.64" y="428.34" style="fill: rgba(0,0,0,1); font-family: sans-serif; font-size: 14px; " text-rendering="auto" clip-path="url(#clip-0)">1.020</text></g><line x1="100.64" y1="423.07" x2="102.64" y2="423.07" style="stroke-width: 1.0;stroke: rgba(0,0,0,1);stroke-opacity: 1.0;" transform="matrix(1,0,0,1,0,0)" clip-path="url(#clip-0)"/><g transform="matrix(1,0,0,1,0,0)"><text x="60.64" y="392.65" style="fill: rgba(0,0,0,1); font-family: sans-serif; font-size: 14px; " text-rendering="auto" clip-path="url(#clip-0)">1.040</text></g><line x1="100.64" y1="387.38" x2="102.64" y2="387.38" style="stroke-width: 1.0;stroke: rgba(0,0,0,1);stroke-opacity: 1.0;" transform="matrix(1,0,0,1,0,0)" clip-path="url(#clip-0)"/><g transform="matrix(1,0,0,1,0,0)"><text x="60.64" y="356.97" style="fill: rgba(0,0,0,1); font-family: sans-serif; font-size: 14px; " text-rendering="auto" clip-path="url(#clip-0)">1.060</text></g><line x1="100.64" y1="351.7" x2="102.64" y2="351.7" style="stroke-width: 1.0;stroke: rgba(0,0,0,1);stroke-opacity: 1.0;" transform="matrix(1,0,0,1,0,0)" clip-path="url(#clip-0)"/><g transform="matrix(1,0,0,1,0,0)"><text x="60.64" y="321.29" style="fill: rgba(0,0,0,1); font-family: sans-serif; font-size: 14px; " text-rendering="auto" clip-path="url(#clip-0)">1.080</text></g><line x1="100.64" y1="316.02" x2="102.64" y2="316.02" style="stroke-width: 1.0;stroke: rgba(0,0,0,1);stroke-opacity: 1.0;" transform="matrix(1,0,0,1,0,0)" clip-path="url(#clip-0)"/><g transform="matrix(1,0,0,1,0,0)"><text x="60.64" y="285.61" style="fill: rgba(0,0,0,1); font-family: sans-serif; font-size: 14px; " text-rendering="auto" clip-path="url(#clip-0)">1.100</text></g><line x1="100.64" y1="280.34" x2="102.64" y2="280.34" style="stroke-width: 1.0;stroke: rgba(0,0,0,1);stroke-opacity: 1.0;" transform="matrix(1,0,0,1,0,0)" clip-path="url(#clip-0)"/><g transform="matrix(1,0,0,1,0,0)"><text x="60.64" y="249.92" style="fill: rgba(0,0,0,1); font-family: sans-serif; font-size: 14px; " text-rendering="auto" clip-path="url(#clip-0)">1.120</text></g><line x1="100.64" y1="244.65" x2="102.64" y2="244.65" style="stroke-width: 1.0;stroke: rgba(0,0,0,1);stroke-opacity: 1.0;" transform="matrix(1,0,0,1,0,0)" clip-path="url(#clip-0)"/><g transform="matrix(1,0,0,1,0,0)"><text x="60.64" y="214.24" style="fill: rgba(0,0,0,1); font-family: sans-serif; font-size: 14px; " text-rendering="auto" clip-path="url(#clip-0)">1.140</text></g><line x1="100.64" y1="208.97" x2="102.64" y2="208.97" style="stroke-width: 1.0;stroke: rgba(0,0,0,1);stroke-opacity: 1.0;" transform="matrix(1,0,0,1,0,0)" clip-path="url(#clip-0)"/><g transform="matrix(1,0,0,1,0,0)"><text x="60.64" y="178.56" style="fill: rgba(0,0,0,1); font-family: sans-serif; font-size: 14px; " text-rendering="auto" clip-path="url(#clip-0)">1.160</text></g><line x1="100.64" y1="173.29" x2="102.64" y2="173.29" style="stroke-width: 1.0;stroke: rgba(0,0,0,1);stroke-opacity: 1.0;" transform="matrix(1,0,0,1,0,0)" clip-path="url(#clip-0)"/><g transform="matrix(1,0,0,1,0,0)"><text x="60.64" y="142.88" style="fill: rgba(0,0,0,1); font-family: sans-serif; font-size: 14px; " text-rendering="auto" clip-path="url(#clip-0)">1.180</text></g><line x1="100.64" y1="137.6" x2="102.64" y2="137.6" style="stroke-width: 1.0;stroke: rgba(0,0,0,1);stroke-opacity: 1.0;" transform="matrix(1,0,0,1,0,0)" clip-path="url(#clip-0)"/><g transform="matrix(1,0,0,1,0,0)"><text x="60.64" y="107.19" style="fill: rgba(0,0,0,1); font-family: sans-serif; font-size: 14px; " text-rendering="auto" clip-path="url(#clip-0)">1.200</text></g><line x1="100.64" y1="101.92" x2="102.64" y2="101.92" style="stroke-width: 1.0;stroke: rgba(0,0,0,1);stroke-opacity: 1.0;" transform="matrix(1,0,0,1,0,0)" clip-path="url(#clip-0)"/><g transform="matrix(0,-1,1,0,-236.015625,324.65625)"><text x="-34.68" y="287.11" style="fill: rgba(0,0,0,1); font-family: sans-serif; font-size: 18px; " text-rendering="auto" clip-path="url(#clip-1)">PRESSURE OF O2</text></g><line x1="400.35" y1="316.13" x2="404.6" y2="306.29" style="stroke-width: 1.0;stroke: rgba(0,0,0,1);stroke-opacity: 1.0;" transform="matrix(1,0,0,1,0,0)" clip-path="url(#clip-2)"/><line x1="404.6" y1="306.29" x2="408.86" y2="296.49" style="stroke-width: 1.0;stroke: rgba(0,0,0,1);stroke-opacity: 1.0;" transform="matrix(1,0,0,1,0,0)" clip-path="url(#clip-2)"/><line x1="408.86" y1="296.49" x2="413.11" y2="286.8" style="stroke-width: 1.0;stroke: rgba(0,0,0,1);stroke-opacity: 1.0;" transform="matrix(1,0,0,1,0,0)" clip-path="url(#clip-2)"/><line x1="413.11" y1="286.8" x2="417.36" y2="277.25" style="stroke-width: 1.0;stroke: rgba(0,0,0,1);stroke-opacity: 1.0;" transform="matrix(1,0,0,1,0,0)" clip-path="url(#clip-2)"/><line x1="417.36" y1="277.25" x2="421.62" y2="267.91" style="stroke-width: 1.0;stroke: rgba(0,0,0,1);stroke-opacity: 1.0;" transform="matrix(1,0,0,1,0,0)" clip-path="url(#clip-2)"/><line x1="421.62" y1="267.91" x2="425.87" y2="258.8" style="stroke-width: 1.0;stroke: rgba(0,0,0,1);stroke-opacity: 1.0;" transform="matrix(1,0,0,1,0,0)" clip-path="url(#clip-2)"/><line x1="425.87" y1="258.8" x2="430.12" y2="249.98" style="stroke-width: 1.0;stroke: rgba(0,0,0,1);stroke-opacity: 1.0;" transform="matrix(1,0,0,1,0,0)" clip-path="url(#clip-2)"/><line x1="430.12" y1="249.98" x2="434.37" y2="241.47" style="stroke-width: 1.0;stroke: rgba(0,0,0,1);stroke-opacity: 1.0;" transform="matrix(1,0,0,1,0,0)" clip-path="url(#clip-2)"/><line x1="434.37" y1="241.47" x2="438.63" y2="233.29" style="stroke-width: 1.0;stroke: rgba(0,0,0,1);stroke-opacity: 1.0;" transform="matrix(1,0,0,1,0,0)" clip-path="url(#clip-2)"/><line x1="438.63" y1="233.29" x2="442.88" y2="225.46" style="stroke-width: 1.0;stroke: rgba(0,0,0,1);stroke-opacity: 1.0;" transform="matrix(1,0,0,1,0,0)" clip-path="url(#clip-2)"/><line x1="442.88" y1="225.46" x2="447.13" y2="217.99" style="stroke-width: 1.0;stroke: rgba(0,0,0,1);stroke-opacity: 1.0;" transform="matrix(1,0,0,1,0,0)" clip-path="url(#clip-2)"/><line x1="447.13" y1="217.99" x2="451.39" y2="210.88" style="stroke-width: 1.0;stroke: rgba(0,0,0,1);stroke-opacity: 1.0;" transform="matrix(1,0,0,1,0,0)" clip-path="url(#clip-2)"/><line x1="451.39" y1="210.88" x2="455.64" y2="204.14" style="stroke-width: 1.0;stroke: rgba(0,0,0,1);stroke-opacity: 1.0;" transform="matrix(1,0,0,1,0,0)" clip-path="url(#clip-2)"/><line x1="455.64" y1="204.14" x2="459.89" y2="197.77" style="stroke-width: 1.0;stroke: rgba(0,0,0,1);stroke-opacity: 1.0;" transform="matrix(1,0,0,1,0,0)" clip-path="url(#clip-2)"/><line x1="459.89" y1="197.77" x2="464.15" y2="191.76" style="stroke-width: 1.0;stroke: rgba(0,0,0,1);stroke-opacity: 1.0;" transform="matrix(1,0,0,1,0,0)" clip-path="url(#clip-2)"/><line x1="464.15" y1="191.76" x2="468.4" y2="186.1" style="stroke-width: 1.0;stroke: rgba(0,0,0,1);stroke-opacity: 1.0;" transform="matrix(1,0,0,1,0,0)" clip-path="url(#clip-2)"/><line x1="468.4" y1="186.1" x2="472.65" y2="180.78" style="stroke-width: 1.0;stroke: rgba(0,0,0,1);stroke-opacity: 1.0;" transform="matrix(1,0,0,1,0,0)" clip-path="url(#clip-2)"/><line x1="472.65" y1="180.78" x2="476.9" y2="175.78" style="stroke-width: 1.0;stroke: rgba(0,0,0,1);stroke-opacity: 1.0;" transform="matrix(1,0,0,1,0,0)" clip-path="url(#clip-2)"/><line x1="476.9" y1="175.78" x2="481.16" y2="171.1" style="stroke-width: 1.0;stroke: rgba(0,0,0,1);stroke-opacity: 1.0;" transform="matrix(1,0,0,1,0,0)" clip-path="url(#clip-2)"/><line x1="481.16" y1="171.1" x2="485.41" y2="166.72" style="stroke-width: 1.0;stroke: rgba(0,0,0,1);stroke-opacity: 1.0;" transform="matrix(1,0,0,1,0,0)" clip-path="url(#clip-2)"/><line x1="485.41" y1="166.72" x2="489.66" y2="162.63" style="stroke-width: 1.0;stroke: rgba(0,0,0,1);stroke-opacity: 1.0;" transform="matrix(1,0,0,1,0,0)" clip-path="url(#clip-2)"/><line x1="489.66" y1="162.63" x2="493.92" y2="158.81" style="stroke-width: 1.0;stroke: rgba(0,0,0,1);stroke-opacity: 1.0;" transform="matrix(1,0,0,1,0,0)" clip-path="url(#clip-2)"/><line x1="493.92" y1="158.81" x2="498.17" y2="155.24" style="stroke-width: 1.0;stroke: rgba(0,0,0,1);stroke-opacity: 1.0;" transform="matrix(1,0,0,1,0,0)" clip-path="url(#clip-2)"/><line x1="498.17" y1="155.24" x2="502.42" y2="151.91" style="stroke-width: 1.0;stroke: rgba(0,0,0,1);stroke-opacity: 1.0;" transform="matrix(1,0,0,1,0,0)" clip-path="url(#clip-2)"/><line x1="502.42" y1="151.91" x2="506.68" y2="148.8" style="stroke-width: 1.0;stroke: rgba(0,0,0,1);stroke-opacity: 1.0;" transform="matrix(1,0,0,1,0,0)" clip-path="url(#clip-2)"/><line x1="506.68" y1="148.8" x2="510.93" y2="145.9" style="stroke-width: 1.0;stroke: rgba(0,0,0,1);stroke-opacity: 1.0;" transform="matrix(1,0,0,1,0,0)" clip-path="url(#clip-2)"/><line x1="510.93" y1="145.9" x2="515.18" y2="143.21" style="stroke-width: 1.0;stroke: rgba(0,0,0,1);stroke-opacity: 1.0;" transform="matrix(1,0,0,1,0,0)" clip-path="url(#clip-2)"/><line x1="515.18" y1="143.21" x2="519.43" y2="140.69" style="stroke-width: 1.0;stroke: rgba(0,0,0,1);stroke-opacity: 1.0;" transform="matrix(1,0,0,1,0,0)" clip-path="url(#clip-2)"/><line x1="519.43" y1="140.69" x2="523.69" y2="138.35" style="stroke-width: 1.0;stroke: rgba(0,0,0,1);stroke-opacity: 1.0;" transform="matrix(1,0,0,1,0,0)" clip-path="url(#clip-2)"/><line x1="523.69" y1="138.35" x2="527.94" y2="136.16" style="stroke-width: 1.0;stroke: rgba(0,0,0,1);stroke-opacity: 1.0;" transform="matrix(1,0,0,1,0,0)" clip-path="url(#clip-2)"/><line x1="527.94" y1="136.16" x2="532.19" y2="134.13" style="stroke-width: 1.0;stroke: rgba(0,0,0,1);stroke-opacity: 1.0;" transform="matrix(1,0,0,1,0,0)" clip-path="url(#clip-2)"/><line x1="532.19" y1="134.13" x2="536.45" y2="132.23" style="stroke-width: 1.0;stroke: rgba(0,0,0,1);stroke-opacity: 1.0;" transform="matrix(1,0,0,1,0,0)" clip-path="url(#clip-2)"/><line x1="536.45" y1="132.23" x2="540.7" y2="130.46" style="stroke-width: 1.0;stroke: rgba(0,0,0,1);stroke-opacity: 1.0;" transform="matrix(1,0,0,1,0,0)" clip-path="url(#clip-2)"/><line x1="540.7" y1="130.46" x2="544.95" y2="128.81" style="stroke-width: 1.0;stroke: rgba(0,0,0,1);stroke-opacity: 1.0;" transform="matrix(1,0,0,1,0,0)" clip-path="url(#clip-2)"/><line x1="544.95" y1="128.81" x2="549.21" y2="127.28" style="stroke-width: 1.0;stroke: rgba(0,0,0,1);stroke-opacity: 1.0;" transform="matrix(1,0,0,1,0,0)" clip-path="url(#clip-2)"/><line x1="549.21" y1="127.28" x2="553.46" y2="125.84" style="stroke-width: 1.0;stroke: rgba(0,0,0,1);stroke-opacity: 1.0;" transform="matrix(1,0,0,1,0,0)" clip-path="url(#clip-2)"/><line x1="553.46" y1="125.84" x2="557.71" y2="124.5" style="stroke-width: 1.0;stroke: rgba(0,0,0,1);stroke-opacity: 1.0;" transform="matrix(1,0,0,1,0,0)" clip-path="url(#clip-2)"/><line x1="557.71" y1="124.5" x2="561.96" y2="123.25" style="stroke-width: 1.0;stroke: rgba(0,0,0,1);stroke-opacity: 1.0;" transform="matrix(1,0,0,1,0,0)" clip-path="url(#clip-2)"/><line x1="561.96" y1="123.25" x2="566.22" y2="122.08" style="stroke-width: 1.0;stroke: rgba(0,0,0,1);stroke-opacity: 1.0;" transform="matrix(1,0,0,1,0,0)" clip-path="url(#clip-2)"/><line x1="566.22" y1="122.08" x2="570.47" y2="120.98" style="stroke-width: 1.0;stroke: rgba(0,0,0,1);stroke-opacity: 1.0;" transform="matrix(1,0,0,1,0,0)" clip-path="url(#clip-2)"/><line x1="570.47" y1="120.98" x2="574.72" y2="119.96" style="stroke-width: 1.0;stroke: rgba(0,0,0,1);stroke-opacity: 1.0;" transform="matrix(1,0,0,1,0,0)" clip-path="url(#clip-2)"/><line x1="574.72" y1="119.96" x2="578.98" y2="119" style="stroke-width: 1.0;stroke: rgba(0,0,0,1);stroke-opacity: 1.0;" transform="matrix(1,0,0,1,0,0)" clip-path="url(#clip-2)"/><line x1="578.98" y1="119" x2="583.23" y2="118.11" style="stroke-width: 1.0;stroke: rgba(0,0,0,1);stroke-opacity: 1.0;" transform="matrix(1,0,0,1,0,0)" clip-path="url(#clip-2)"/><line x1="583.23" y1="118.11" x2="587.48" y2="117.27" style="stroke-width: 1.0;stroke: rgba(0,0,0,1);stroke-opacity: 1.0;" transform="matrix(1,0,0,1,0,0)" clip-path="url(#clip-2)"/><line x1="587.48" y1="117.27" x2="591.74" y2="116.48" style="stroke-width: 1.0;stroke: rgba(0,0,0,1);stroke-opacity: 1.0;" transform="matrix(1,0,0,1,0,0)" clip-path="url(#clip-2)"/><line x1="591.74" y1="116.48" x2="595.99" y2="115.74" style="stroke-width: 1.0;stroke: rgba(0,0,0,1);stroke-opacity: 1.0;" transform="matrix(1,0,0,1,0,0)" clip-path="url(#clip-2)"/><line x1="595.99" y1="115.74" x2="600.24" y2="115.05" style="stroke-width: 1.0;stroke: rgba(0,0,0,1);stroke-opacity: 1.0;" transform="matrix(1,0,0,1,0,0)" clip-path="url(#clip-2)"/><line x1="600.24" y1="115.05" x2="604.49" y2="114.4" style="stroke-width: 1.0;stroke: rgba(0,0,0,1);stroke-opacity: 1.0;" transform="matrix(1,0,0,1,0,0)" clip-path="url(#clip-2)"/><line x1="604.49" y1="114.4" x2="608.75" y2="113.79" style="stroke-width: 1.0;stroke: rgba(0,0,0,1);stroke-opacity: 1.0;" transform="matrix(1,0,0,1,0,0)" clip-path="url(#clip-2)"/><line x1="608.75" y1="113.79" x2="613" y2="113.22" style="stroke-width: 1.0;stroke: rgba(0,0,0,1);stroke-opacity: 1.0;" transform="matrix(1,0,0,1,0,0)" clip-path="url(#clip-2)"/><line x1="400.35" y1="316.13" x2="396.1" y2="325.94" style="stroke-width: 1.0;stroke: rgba(0,0,0,1);stroke-opacity: 1.0;" transform="matrix(1,0,0,1,0,0)" clip-path="url(#clip-2)"/><line x1="396.1" y1="325.94" x2="391.84" y2="335.67" style="stroke-width: 1.0;stroke: rgba(0,0,0,1);stroke-opacity: 1.0;" transform="matrix(1,0,0,1,0,0)" clip-path="url(#clip-2)"/><line x1="391.84" y1="335.67" x2="387.59" y2="345.25" style="stroke-width: 1.0;stroke: rgba(0,0,0,1);stroke-opacity: 1.0;" transform="matrix(1,0,0,1,0,0)" clip-path="url(#clip-2)"/><line x1="387.59" y1="345.25" x2="383.34" y2="354.61" style="stroke-width: 1.0;stroke: rgba(0,0,0,1);stroke-opacity: 1.0;" transform="matrix(1,0,0,1,0,0)" clip-path="url(#clip-2)"/><line x1="383.34" y1="354.61" x2="379.09" y2="363.7" style="stroke-width: 1.0;stroke: rgba(0,0,0,1);stroke-opacity: 1.0;" transform="matrix(1,0,0,1,0,0)" clip-path="url(#clip-2)"/><line x1="379.09" y1="363.7" x2="374.83" y2="372.45" style="stroke-width: 1.0;stroke: rgba(0,0,0,1);stroke-opacity: 1.0;" transform="matrix(1,0,0,1,0,0)" clip-path="url(#clip-2)"/><line x1="374.83" y1="372.45" x2="370.58" y2="380.82" style="stroke-width: 1.0;stroke: rgba(0,0,0,1);stroke-opacity: 1.0;" transform="matrix(1,0,0,1,0,0)" clip-path="url(#clip-2)"/><line x1="370.58" y1="380.82" x2="366.33" y2="388.76" style="stroke-width: 1.0;stroke: rgba(0,0,0,1);stroke-opacity: 1.0;" transform="matrix(1,0,0,1,0,0)" clip-path="url(#clip-2)"/><line x1="366.33" y1="388.76" x2="362.07" y2="396.24" style="stroke-width: 1.0;stroke: rgba(0,0,0,1);stroke-opacity: 1.0;" transform="matrix(1,0,0,1,0,0)" clip-path="url(#clip-2)"/><line x1="362.07" y1="396.24" x2="357.82" y2="403.23" style="stroke-width: 1.0;stroke: rgba(0,0,0,1);stroke-opacity: 1.0;" transform="matrix(1,0,0,1,0,0)" clip-path="url(#clip-2)"/><line x1="357.82" y1="403.23" x2="353.57" y2="409.71" style="stroke-width: 1.0;stroke: rgba(0,0,0,1);stroke-opacity: 1.0;" transform="matrix(1,0,0,1,0,0)" clip-path="url(#clip-2)"/><line x1="353.57" y1="409.71" x2="349.31" y2="415.68" style="stroke-width: 1.0;stroke: rgba(0,0,0,1);stroke-opacity: 1.0;" transform="matrix(1,0,0,1,0,0)" clip-path="url(#clip-2)"/><line x1="349.31" y1="415.68" x2="345.06" y2="421.13" style="stroke-width: 1.0;stroke: rgba(0,0,0,1);stroke-opacity: 1.0;" transform="matrix(1,0,0,1,0,0)" clip-path="url(#clip-2)"/><line x1="345.06" y1="421.13" x2="340.81" y2="426.08" style="stroke-width: 1.0;stroke: rgba(0,0,0,1);stroke-opacity: 1.0;" transform="matrix(1,0,0,1,0,0)" clip-path="url(#clip-2)"/><line x1="340.81" y1="426.08" x2="336.56" y2="430.54" style="stroke-width: 1.0;stroke: rgba(0,0,0,1);stroke-opacity: 1.0;" transform="matrix(1,0,0,1,0,0)" clip-path="url(#clip-2)"/><line x1="336.56" y1="430.54" x2="332.3" y2="434.53" style="stroke-width: 1.0;stroke: rgba(0,0,0,1);stroke-opacity: 1.0;" transform="matrix(1,0,0,1,0,0)" clip-path="url(#clip-2)"/><line x1="332.3" y1="434.53" x2="328.05" y2="438.07" style="stroke-width: 1.0;stroke: rgba(0,0,0,1);stroke-opacity: 1.0;" transform="matrix(1,0,0,1,0,0)" clip-path="url(#clip-2)"/><line x1="328.05" y1="438.07" x2="323.8" y2="441.19" style="stroke-width: 1.0;stroke: rgba(0,0,0,1);stroke-opacity: 1.0;" transform="matrix(1,0,0,1,0,0)" clip-path="url(#clip-2)"/><line x1="323.8" y1="441.19" x2="319.54" y2="443.92" style="stroke-width: 1.0;stroke: rgba(0,0,0,1);stroke-opacity: 1.0;" transform="matrix(1,0,0,1,0,0)" clip-path="url(#clip-2)"/><line x1="319.54" y1="443.92" x2="315.29" y2="446.3" style="stroke-width: 1.0;stroke: rgba(0,0,0,1);stroke-opacity: 1.0;" transform="matrix(1,0,0,1,0,0)" clip-path="url(#clip-2)"/><line x1="315.29" y1="446.3" x2="311.04" y2="448.36" style="stroke-width: 1.0;stroke: rgba(0,0,0,1);stroke-opacity: 1.0;" transform="matrix(1,0,0,1,0,0)" clip-path="url(#clip-2)"/><line x1="311.04" y1="448.36" x2="306.78" y2="450.13" style="stroke-width: 1.0;stroke: rgba(0,0,0,1);stroke-opacity: 1.0;" transform="matrix(1,0,0,1,0,0)" clip-path="url(#clip-2)"/><line x1="306.78" y1="450.13" x2="302.53" y2="451.64" style="stroke-width: 1.0;stroke: rgba(0,0,0,1);stroke-opacity: 1.0;" transform="matrix(1,0,0,1,0,0)" clip-path="url(#clip-2)"/><line x1="302.53" y1="451.64" x2="298.28" y2="452.92" style="stroke-width: 1.0;stroke: rgba(0,0,0,1);stroke-opacity: 1.0;" transform="matrix(1,0,0,1,0,0)" clip-path="url(#clip-2)"/><line x1="298.28" y1="452.92" x2="294.03" y2="454" style="stroke-width: 1.0;stroke: rgba(0,0,0,1);stroke-opacity: 1.0;" transform="matrix(1,0,0,1,0,0)" clip-path="url(#clip-2)"/><line x1="294.03" y1="454" x2="289.77" y2="454.9" style="stroke-width: 1.0;stroke: rgba(0,0,0,1);stroke-opacity: 1.0;" transform="matrix(1,0,0,1,0,0)" clip-path="url(#clip-2)"/><line x1="289.77" y1="454.9" x2="285.52" y2="455.65" style="stroke-width: 1.0;stroke: rgba(0,0,0,1);stroke-opacity: 1.0;" transform="matrix(1,0,0,1,0,0)" clip-path="url(#clip-2)"/><line x1="285.52" y1="455.65" x2="281.27" y2="456.27" style="stroke-width: 1.0;stroke: rgba(0,0,0,1);stroke-opacity: 1.0;" transform="matrix(1,0,0,1,0,0)" clip-path="url(#clip-2)"/><line x1="281.27" y1="456.27" x2="277.01" y2="456.78" style="stroke-width: 1.0;stroke: rgba(0,0,0,1);stroke-opacity: 1.0;" transform="matrix(1,0,0,1,0,0)" clip-path="url(#clip-2)"/><line x1="277.01" y1="456.78" x2="272.76" y2="457.2" style="stroke-width: 1.0;stroke: rgba(0,0,0,1);stroke-opacity: 1.0;" transform="matrix(1,0,0,1,0,0)" clip-path="url(#clip-2)"/><line x1="272.76" y1="457.2" x2="268.51" y2="457.54" style="stroke-width: 1.0;stroke: rgba(0,0,0,1);stroke-opacity: 1.0;" transform="matrix(1,0,0,1,0,0)" clip-path="url(#clip-2)"/><line x1="268.51" y1="457.54" x2="264.25" y2="457.81" style="stroke-width: 1.0;stroke: rgba(0,0,0,1);stroke-opacity: 1.0;" transform="matrix(1,0,0,1,0,0)" clip-path="url(#clip-2)"/><line x1="264.25" y1="457.81" x2="260" y2="458.02" style="stroke-width: 1.0;stroke: rgba(0,0,0,1);stroke-opacity: 1.0;" transform="matrix(1,0,0,1,0,0)" clip-path="url(#clip-2)"/><line x1="260" y1="458.02" x2="255.75" y2="458.19" style="stroke-width: 1.0;stroke: rgba(0,0,0,1);stroke-opacity: 1.0;" transform="matrix(1,0,0,1,0,0)" clip-path="url(#clip-2)"/><line x1="255.75" y1="458.19" x2="251.5" y2="458.33" style="stroke-width: 1.0;stroke: rgba(0,0,0,1);stroke-opacity: 1.0;" transform="matrix(1,0,0,1,0,0)" clip-path="url(#clip-2)"/><line x1="251.5" y1="458.33" x2="247.24" y2="458.43" style="stroke-width: 1.0;stroke: rgba(0,0,0,1);stroke-opacity: 1.0;" transform="matrix(1,0,0,1,0,0)" clip-path="url(#clip-2)"/><line x1="247.24" y1="458.43" x2="242.99" y2="458.51" style="stroke-width: 1.0;stroke: rgba(0,0,0,1);stroke-opacity: 1.0;" transform="matrix(1,0,0,1,0,0)" clip-path="url(#clip-2)"/><line x1="242.99" y1="458.51" x2="238.74" y2="458.58" style="stroke-width: 1.0;stroke: rgba(0,0,0,1);stroke-opacity: 1.0;" transform="matrix(1,0,0,1,0,0)" clip-path="url(#clip-2)"/><line x1="238.74" y1="458.58" x2="234.48" y2="458.62" style="stroke-width: 1.0;stroke: rgba(0,0,0,1);stroke-opacity: 1.0;" transform="matrix(1,0,0,1,0,0)" clip-path="url(#clip-2)"/><line x1="234.48" y1="458.62" x2="230.23" y2="458.66" style="stroke-width: 1.0;stroke: rgba(0,0,0,1);stroke-opacity: 1.0;" transform="matrix(1,0,0,1,0,0)" clip-path="url(#clip-2)"/><line x1="230.23" y1="458.66" x2="225.98" y2="458.68" style="stroke-width: 1.0;stroke: rgba(0,0,0,1);stroke-opacity: 1.0;" transform="matrix(1,0,0,1,0,0)" clip-path="url(#clip-2)"/><line x1="225.98" y1="458.68" x2="221.72" y2="458.7" style="stroke-width: 1.0;stroke: rgba(0,0,0,1);stroke-opacity: 1.0;" transform="matrix(1,0,0,1,0,0)" clip-path="url(#clip-2)"/><line x1="221.72" y1="458.7" x2="217.47" y2="458.72" style="stroke-width: 1.0;stroke: rgba(0,0,0,1);stroke-opacity: 1.0;" transform="matrix(1,0,0,1,0,0)" clip-path="url(#clip-2)"/><line x1="217.47" y1="458.72" x2="213.22" y2="458.73" style="stroke-width: 1.0;stroke: rgba(0,0,0,1);stroke-opacity: 1.0;" transform="matrix(1,0,0,1,0,0)" clip-path="url(#clip-2)"/><line x1="213.22" y1="458.73" x2="208.97" y2="458.73" style="stroke-width: 1.0;stroke: rgba(0,0,0,1);stroke-opacity: 1.0;" transform="matrix(1,0,0,1,0,0)" clip-path="url(#clip-2)"/><line x1="208.97" y1="458.73" x2="204.71" y2="458.74" style="stroke-width: 1.0;stroke: rgba(0,0,0,1);stroke-opacity: 1.0;" transform="matrix(1,0,0,1,0,0)" clip-path="url(#clip-2)"/><line x1="204.71" y1="458.74" x2="200.46" y2="458.74" style="stroke-width: 1.0;stroke: rgba(0,0,0,1);stroke-opacity: 1.0;" transform="matrix(1,0,0,1,0,0)" clip-path="url(#clip-2)"/><line x1="200.46" y1="458.74" x2="196.21" y2="458.75" style="stroke-width: 1.0;stroke: rgba(0,0,0,1);stroke-opacity: 1.0;" transform="matrix(1,0,0,1,0,0)" clip-path="url(#clip-2)"/><line x1="196.21" y1="458.75" x2="191.95" y2="458.75" style="stroke-width: 1.0;stroke: rgba(0,0,0,1);stroke-opacity: 1.0;" transform="matrix(1,0,0,1,0,0)" clip-path="url(#clip-2)"/><line x1="191.95" y1="458.75" x2="187.7" y2="458.75" style="stroke-width: 1.0;stroke: rgba(0,0,0,1);stroke-opacity: 1.0;" transform="matrix(1,0,0,1,0,0)" clip-path="url(#clip-2)"/><line x1="187.7" y1="458.75" x2="183.45" y2="458.75" style="stroke-width: 1.0;stroke: rgba(0,0,0,1);stroke-opacity: 1.0;" transform="matrix(1,0,0,1,0,0)" clip-path="url(#clip-2)"/><line x1="183.45" y1="458.75" x2="179.19" y2="458.75" style="stroke-width: 1.0;stroke: rgba(0,0,0,1);stroke-opacity: 1.0;" transform="matrix(1,0,0,1,0,0)" clip-path="url(#clip-2)"/><line x1="179.19" y1="458.75" x2="174.94" y2="458.75" style="stroke-width: 1.0;stroke: rgba(0,0,0,1);stroke-opacity: 1.0;" transform="matrix(1,0,0,1,0,0)" clip-path="url(#clip-2)"/><line x1="174.94" y1="458.75" x2="170.69" y2="458.75" style="stroke-width: 1.0;stroke: rgba(0,0,0,1);stroke-opacity: 1.0;" transform="matrix(1,0,0,1,0,0)" clip-path="url(#clip-2)"/><line x1="170.69" y1="458.75" x2="166.44" y2="458.75" style="stroke-width: 1.0;stroke: rgba(0,0,0,1);stroke-opacity: 1.0;" transform="matrix(1,0,0,1,0,0)" clip-path="url(#clip-2)"/><line x1="166.44" y1="458.75" x2="162.18" y2="458.75" style="stroke-width: 1.0;stroke: rgba(0,0,0,1);stroke-opacity: 1.0;" transform="matrix(1,0,0,1,0,0)" clip-path="url(#clip-2)"/><line x1="162.18" y1="458.75" x2="157.93" y2="458.75" style="stroke-width: 1.0;stroke: rgba(0,0,0,1);stroke-opacity: 1.0;" transform="matrix(1,0,0,1,0,0)" clip-path="url(#clip-2)"/><line x1="157.93" y1="458.75" x2="153.68" y2="458.75" style="stroke-width: 1.0;stroke: rgba(0,0,0,1);stroke-opacity: 1.0;" transform="matrix(1,0,0,1,0,0)" clip-path="url(#clip-2)"/><line x1="153.68" y1="458.75" x2="149.42" y2="458.75" style="stroke-width: 1.0;stroke: rgba(0,0,0,1);stroke-opacity: 1.0;" transform="matrix(1,0,0,1,0,0)" clip-path="url(#clip-2)"/><line x1="149.42" y1="458.75" x2="145.17" y2="458.75" style="stroke-width: 1.0;stroke: rgba(0,0,0,1);stroke-opacity: 1.0;" transform="matrix(1,0,0,1,0,0)" clip-path="url(#clip-2)"/><line x1="145.17" y1="458.75" x2="140.92" y2="458.75" style="stroke-width: 1.0;stroke: rgba(0,0,0,1);stroke-opacity: 1.0;" transform="matrix(1,0,0,1,0,0)" clip-path="url(#clip-2)"/><line x1="140.92" y1="458.75" x2="136.66" y2="458.75" style="stroke-width: 1.0;stroke: rgba(0,0,0,1);stroke-opacity: 1.0;" transform="matrix(1,0,0,1,0,0)" clip-path="url(#clip-2)"/><line x1="136.66" y1="458.75" x2="132.41" y2="458.75" style="stroke-width: 1.0;stroke: rgba(0,0,0,1);stroke-opacity: 1.0;" transform="matrix(1,0,0,1,0,0)" clip-path="url(#clip-2)"/><line x1="132.41" y1="458.75" x2="128.16" y2="458.75" style="stroke-width: 1.0;stroke: rgba(0,0,0,1);stroke-opacity: 1.0;" transform="matrix(1,0,0,1,0,0)" clip-path="url(#clip-2)"/><line x1="128.16" y1="458.75" x2="123.91" y2="458.75" style="stroke-width: 1.0;stroke: rgba(0,0,0,1);stroke-opacity: 1.0;" transform="matrix(1,0,0,1,0,0)" clip-path="url(#clip-2)"/><line x1="123.91" y1="458.75" x2="119.65" y2="458.75" style="stroke-width: 1.0;stroke: rgba(0,0,0,1);stroke-opacity: 1.0;" transform="matrix(1,0,0,1,0,0)" clip-path="url(#clip-2)"/><line x1="119.65" y1="458.75" x2="115.4" y2="458.75" style="stroke-width: 1.0;stroke: rgba(0,0,0,1);stroke-opacity: 1.0;" transform="matrix(1,0,0,1,0,0)" clip-path="url(#clip-2)"/><line x1="115.4" y1="458.75" x2="111.15" y2="458.75" style="stroke-width: 1.0;stroke: rgba(0,0,0,1);stroke-opacity: 1.0;" transform="matrix(1,0,0,1,0,0)" clip-path="url(#clip-2)"/><line x1="111.15" y1="458.75" x2="106.89" y2="458.75" style="stroke-width: 1.0;stroke: rgba(0,0,0,1);stroke-opacity: 1.0;" transform="matrix(1,0,0,1,0,0)" clip-path="url(#clip-2)"/><line x1="106.89" y1="458.75" x2="102.64" y2="458.75" style="stroke-width: 1.0;stroke: rgba(0,0,0,1);stroke-opacity: 1.0;" transform="matrix(1,0,0,1,0,0)" clip-path="url(#clip-2)"/><g style="fill: rgba(255,255,255,0);fill-opacity: 1.0; stroke: none" transform="matrix(1,0,0,1,10,415)" clip-path="url(#clip-0)"><path d="M 27.99 88.85 L 30 66.92 M 30 66.92 L 50.08 101.54 M 50.08 101.54 L 9.92 101.54 M 9.92 101.54 L 30 66.92 M 30 66.92 L 30 60 M 30 60 L 56.08 105 M 56.08 105 L 50.08 101.54 M 50.08 101.54 L 56.08 105 M 56.08 105 L 3.92 105 M 3.92 105 L 9.92 101.54 M 9.92 101.54 L 3.92 105 M 3.92 105 L 30 60 M 30 60 L 30 66.92 M 30 66.92 L 32.01 88.85 M 32.01 88.85 L 50.08 101.54 M 50.08 101.54 L 30 92.31 M 30 92.31 L 9.92 101.54 M 9.92 101.54 L 27.99 88.85 M 27.99 88.85 L 32.01 88.85 M 32.01 88.85 L 30 92.31 M 30 92.31 L 27.99 88.85"/></g><g style="stroke-width: 1.0;stroke: rgba(160,6,49,1);stroke-opacity: 1.0;; fill: none" transform="matrix(1,0,0,1,10,415)" clip-path="url(#clip-0)"><path d="M 27.99 88.85 L 30 66.92 M 30 66.92 L 50.08 101.54 M 50.08 101.54 L 9.92 101.54 M 9.92 101.54 L 30 66.92 M 30 66.92 L 30 60 M 30 60 L 56.08 105 M 56.08 105 L 50.08 101.54 M 50.08 101.54 L 56.08 105 M 56.08 105 L 3.92 105 M 3.92 105 L 9.92 101.54 M 9.92 101.54 L 3.92 105 M 3.92 105 L 30 60 M 30 60 L 30 66.92 M 30 66.92 L 32.01 88.85 M 32.01 88.85 L 50.08 101.54 M 50.08 101.54 L 30 92.31 M 30 92.31 L 9.92 101.54 M 9.92 101.54 L 27.99 88.85 M 27.99 88.85 L 32.01 88.85 M 32.01 88.85 L 30 92.31 M 30 92.31 L 27.99 88.85"/></g><rect x="102.64" y="101.92" width="510.36" height="356.83" style="stroke-width: 1.0;stroke: rgba(0,0,0,1);stroke-opacity: 1.0;; fill: none" transform="matrix(1,0,0,1,0,0)" clip-path="url(#clip-0)"/></svg>
